<?xml version="1.0" standalone="no"?><!DOCTYPE svg PUBLIC "-//W3C//DTD SVG 1.1//EN" "http://www.w3.org/Graphics/SVG/1.1/DTD/svg11.dtd"><svg class="icon" width="200px" height="200.00px" viewBox="0 0 1024 1024" version="1.1" xmlns="http://www.w3.org/2000/svg"><path fill="#333333" d="M992 480l-96 0c-17.6 0-32 14.4-32 32 0 17.6 14.4 32 32 32l96 0c17.6 0 32-14.4 32-32C1024 494.4 1009.6 480 992 480zM819.2 249.6l67.2-67.2c12.8-12.8 12.8-32 0-44.8-12.8-12.8-32-12.8-44.8 0l-67.2 67.2c-12.8 12.8-12.8 32 0 44.8C787.2 260.8 808 260.8 819.2 249.6zM512 224c-158.4 0-288 129.6-288 288 0 158.4 129.6 288 288 288 158.4 0 288-129.6 288-288C800 353.6 670.4 224 512 224zM512 736c-123.2 0-224-100.8-224-224 0-123.2 100.8-224 224-224 123.2 0 224 100.8 224 224C736 635.2 635.2 736 512 736zM512 160c17.6 0 32-14.4 32-32L544 32c0-17.6-14.4-32-32-32-17.6 0-32 14.4-32 32l0 96C480 145.6 494.4 160 512 160zM217.6 262.4c12.8 12.8 32 12.8 44.8 0 12.8-12.8 12.8-32 0-44.8l-67.2-67.2c-12.8-12.8-32-12.8-44.8 0-12.8 12.8-12.8 32 0 44.8L217.6 262.4zM128 480 32 480c-17.6 0-32 14.4-32 32 0 17.6 14.4 32 32 32l96 0c17.6 0 32-14.4 32-32C160 494.4 145.6 480 128 480zM236.8 742.4l-67.2 67.2c-12.8 12.8-12.8 32 0 44.8 12.8 12.8 32 12.8 44.8 0l67.2-67.2c12.8-12.8 12.8-32 0-44.8C268.8 729.6 249.6 729.6 236.8 742.4zM512 864c-17.6 0-32 14.4-32 32l0 96c0 17.6 14.4 32 32 32 17.6 0 32-14.4 32-32l0-96C544 878.4 529.6 864 512 864zM806.4 761.6c-12.8-12.8-32-12.8-44.8 0-12.8 12.8-12.8 32 0 44.8l67.2 67.2c12.8 12.8 32 12.8 44.8 0 12.8-12.8 12.8-32 0-44.8L806.4 761.6z" /></svg>